HIERARCHY
ROOT Hips
{
	OFFSET 0.00000 0.00000 0.00000
	CHANNELS 6 Xposition Yposition Zposition Zrotation Yrotation Xrotation 
	JOINT RightUpLegDummy
	{
		OFFSET 0 0 0
		CHANNELS 3 Zrotation Yrotation Xrotation
		JOINT RightUpLeg
		{
			OFFSET -3.52197 -3.41223 0.04002
			CHANNELS 3 Zrotation Yrotation Xrotation
			JOINT RightLeg
			{
				OFFSET 0.00006 -17.42390 1.60435
				CHANNELS 3 Zrotation Yrotation Xrotation
				JOINT RightFoot
				{
					OFFSET 0.06153 -16.50078 -1.63901
					CHANNELS 3 Zrotation Yrotation Xrotation
					JOINT RightToes
					{
						OFFSET 0.00298 -1.73825 3.34613
						CHANNELS 3 Zrotation Yrotation Xrotation
						End Site
						{
							OFFSET 0.00480 -0.05416 3.85043
						}
					}
				}
			}
		}
	}
	JOINT SpineDummy
	{
		OFFSET 0 0 0
		CHANNELS 3 Zrotation Yrotation Xrotation
		JOINT Spine
		{
			OFFSET 0.00000 4.68130 0.00000
			CHANNELS 3 Zrotation Yrotation Xrotation
			JOINT Spine1
			{
				OFFSET -0.00000 10.10138 0.05002
				CHANNELS 3 Zrotation Yrotation Xrotation
				JOINT HEadDummy
				{
					OFFSET 0 0 0
					CHANNELS 3 Zrotation Yrotation Xrotation
					JOINT Head
					{
						OFFSET -0.00000 3.43865 0.00438
						CHANNELS 3 Zrotation Yrotation Xrotation
						End Site
						{
							OFFSET -0.11417 5.02924 0.98962
						}
					}
				}
				JOINT LeftShoulder1Dummy
				{
					OFFSET 0 0 0
					CHANNELS 3 Zrotation Yrotation Xrotation
					JOINT LeftShoulder1
					{
						OFFSET 3.53937 -0.14262 -0.08662
						CHANNELS 3 Zrotation Yrotation Xrotation
						JOINT LeftArm
						{
							OFFSET 4.04833 -0.00133 0.12681
							CHANNELS 3 Zrotation Yrotation Xrotation
							JOINT LeftForeArm
							{
								OFFSET 10.33880 -0.01036 -0.55515
								CHANNELS 3 Zrotation Yrotation Xrotation
								JOINT LeftHand
								{
									OFFSET 8.69677 0.07543 0.40060
									CHANNELS 3 Zrotation Yrotation Xrotation
									End Site
									{
										OFFSET 5.28377 -0.21905 0.59205
									}
								}
							}
						}
					}
				}
				JOINT RightShoulderDummy
				{
					OFFSET 0 0 0
					CHANNELS 3 Zrotation Yrotation Xrotation
					JOINT RightShoulder
					{
						OFFSET -3.53937 -0.14262 -0.08660
						CHANNELS 3 Zrotation Yrotation Xrotation
						JOINT RightArm
						{
							OFFSET -4.04833 -0.00133 0.12683
							CHANNELS 3 Zrotation Yrotation Xrotation
							JOINT RightForeArm
							{
								OFFSET -10.37987 -0.01039 -0.55511
								CHANNELS 3 Zrotation Yrotation Xrotation
								JOINT RightHand
								{
									OFFSET -8.67398 0.07538 0.40058
									CHANNELS 3 Zrotation Yrotation Xrotation
									End Site
									{
										OFFSET -5.24810 -0.21916 0.59204
									}
								}
							}
						}
					}
				}
			}
		}
	}
	JOINT LeftUpLegDummy
	{
		OFFSET 0 0 0
		CHANNELS 3 Zrotation Yrotation Xrotation
		JOINT LeftUpLeg
		{
			OFFSET 3.52197 -3.41223 0.04002
			CHANNELS 3 Zrotation Yrotation Xrotation
			JOINT LeftLeg
			{
				OFFSET -0.00012 -17.42399 1.60337
				CHANNELS 3 Zrotation Yrotation Xrotation
				JOINT LeftFoot
				{
					OFFSET -0.09972 -16.50070 -1.63802
					CHANNELS 3 Zrotation Yrotation Xrotation
					JOINT LeftToes
					{
						OFFSET -0.01575 -1.73823 3.34611
						CHANNELS 3 Zrotation Yrotation Xrotation
						End Site
						{
							OFFSET 0.03150 -0.01868 3.85031
						}
					}
				}
			}
		}
	}
}
MOTION
Frames: 17
Frame Time: 0.033333
46.1624 39.6669 83.9982 179.8760 1.7333 176.8260 0.0000 0.0000 0.0000 3.7538 -0.7491 1.4087 -1.0685 -3.6677 6.2768 -5.0478 0.2631 -4.9043 0.0000 -0.0000 -0.0000 0.0000 0.0000 0.0000 0.6956 -1.0390 1.9362 2.9830 -1.7098 1.6154 -0.0000 0.0000 -0.0000 0.8664 6.3460 0.7611 -0.0000 0.0000 -0.0000 -34.8324 -2.8530 2.5982 -43.8488 -15.5550 -17.3936 -10.4180 5.0712 50.0424 13.6186 -3.3772 -1.0020 -0.0000 0.0000 -0.0000 34.1946 5.0014 3.4197 40.8151 3.0505 -15.9171 10.9696 3.0324 20.4687 -12.8336 -0.9838 -0.5002 0.0000 0.0000 0.0000 1.5050 1.8748 1.2104 0.5105 0.8937 8.2901 1.3895 -0.0313 -6.0121 0.0000 0.0000 -0.0000
46.2125 39.6606 83.9996 179.8290 2.0643 176.7760 0.0000 0.0000 0.0000 3.8427 -0.6023 1.4073 -1.1484 -3.4568 6.3735 -5.1211 0.2679 -4.9492 0.0000 -0.0000 -0.0000 0.0000 0.0000 0.0000 0.5792 -0.8740 2.0961 3.1080 -1.5539 1.4417 -0.0000 0.0000 -0.0000 0.5091 6.4621 -0.3244 -0.0000 0.0000 -0.0000 -34.8870 -2.8175 2.5872 -43.8870 -15.4889 -17.2223 -10.5419 5.0714 49.9833 13.8450 -3.3901 -1.0207 -0.0000 0.0000 -0.0000 34.1103 4.9907 3.4081 40.9057 3.1167 -16.2536 10.8639 2.6480 20.7782 -12.6707 -0.7919 -0.5065 0.0000 0.0000 0.0000 1.6215 2.1117 1.2876 0.3942 0.9777 8.3404 1.3488 -0.0287 -6.0859 0.0000 0.0000 -0.0000
46.3176 39.6464 84.0108 179.7380 2.8767 176.5500 0.0000 0.0000 0.0000 4.0020 -0.3860 1.5167 -1.2075 -2.8274 6.5777 -5.3331 0.2764 -5.0180 0.0000 -0.0000 -0.0000 0.0000 0.0000 0.0000 0.3190 -0.4775 2.5404 3.4275 -1.1875 1.1401 -0.0000 0.0000 -0.0000 0.0388 6.9553 -0.9993 -0.0000 0.0000 -0.0000 -35.1470 -2.7372 2.5709 -43.8021 -15.3521 -16.9930 -10.7093 5.0731 49.8584 14.0429 -3.3126 -1.0271 -0.0000 0.0000 -0.0000 33.9014 4.9597 3.3779 41.1225 3.2992 -16.8083 10.6672 2.0285 21.4217 -12.8793 -1.0075 -0.4900 0.0000 0.0000 0.0000 1.8863 2.6636 1.5799 0.1614 1.2066 8.4562 1.2486 -0.0222 -6.2445 0.0000 0.0000 -0.0000
46.3775 39.6251 84.0346 179.6080 2.8902 176.4350 0.0000 0.0000 0.0000 3.8732 -0.5914 1.4269 -1.0386 -2.5861 6.9551 -5.5274 0.2765 -5.2222 0.0000 -0.0000 -0.0000 0.0000 0.0000 0.0000 0.1005 -0.4024 2.7543 3.7429 -1.1613 1.0334 -0.0000 0.0000 -0.0000 -0.2349 7.0603 -0.9661 -0.0000 0.0000 -0.0000 -35.6067 -2.7623 2.6107 -43.5780 -15.3646 -17.0065 -10.6986 5.0708 49.9413 13.8335 -3.5242 -1.0347 -0.0000 0.0000 -0.0000 33.4212 4.8595 3.2975 41.5773 3.3198 -17.0461 10.5581 1.9647 21.5022 -13.7637 -2.3006 -0.3820 0.0000 0.0000 0.0000 1.8160 2.6480 1.4976 0.2412 1.2039 8.7990 1.0990 -0.0126 -6.3877 0.0000 0.0000 -0.0000
46.4443 39.5966 84.0580 179.5410 3.0501 176.3920 0.0000 0.0000 0.0000 3.8644 -0.6569 1.2038 -0.9359 -2.3715 7.4296 -5.6297 0.2691 -5.4655 0.0000 -0.0000 -0.0000 0.0000 0.0000 0.0000 0.0797 -0.2701 2.6747 3.8004 -1.0435 1.2763 -0.0000 0.0000 -0.0000 -0.3566 6.9558 -1.0702 -0.0000 0.0000 -0.0000 -35.7156 -2.8562 2.6567 -43.6043 -15.5396 -17.1296 -10.5818 5.0676 50.0937 13.5891 -3.8889 -1.0561 -0.0000 0.0000 -0.0000 33.1291 4.7887 3.2452 41.8868 3.1955 -16.8153 10.5985 2.3651 21.4523 -13.7191 -2.3364 -0.3758 0.0000 0.0000 0.0000 1.7826 2.5359 1.2777 0.4412 1.4229 9.3070 0.8721 0.0020 -6.6093 0.0000 0.0000 -0.0000
46.5068 39.5631 84.0892 179.5640 3.1914 176.3950 0.0000 0.0000 0.0000 3.9779 -0.5993 0.8957 -0.9144 -2.2871 7.9595 -5.6222 0.2558 -5.7087 0.0000 -0.0000 -0.0000 0.0000 0.0000 0.0000 0.7528 -0.4220 2.3721 2.7452 -1.0267 1.8196 -0.0000 0.0000 -0.0000 -0.2092 7.1419 -1.3964 -0.0000 0.0000 -0.0000 -34.7260 -2.7955 2.5681 -44.3708 -15.8035 -17.0958 -10.4908 5.0717 49.9952 13.7925 -3.8485 -1.0677 -0.0000 0.0000 -0.0000 33.8133 4.9274 3.3575 41.4715 3.4243 -16.5145 10.7167 2.3427 21.1617 -13.6270 -2.0447 -0.4057 0.0000 0.0000 0.0000 1.8651 2.4912 0.9043 0.5976 1.5423 10.0175 0.6357 0.0172 -6.9212 0.0000 0.0000 -0.0000
46.5604 39.5178 84.1352 179.6100 3.2309 176.3420 0.0000 0.0000 0.0000 4.0810 -0.5889 0.5468 -0.8710 -2.2454 8.6651 -5.6154 0.2398 -6.0060 0.0000 -0.0000 -0.0000 0.0000 0.0000 0.0000 1.3948 -0.6591 2.3333 1.8564 -1.1189 2.1577 -0.0000 0.0000 -0.0000 -0.2705 7.5156 -1.7575 -0.0000 0.0000 -0.0000 -33.7765 -2.6121 2.4342 -45.2089 -16.0732 -16.9398 -10.4641 5.0772 49.8230 14.1250 -3.4941 -1.0542 -0.0000 0.0000 -0.0000 34.1816 5.0116 3.4226 41.3172 4.0278 -16.6464 10.6811 1.7563 21.3785 -13.7175 -1.5306 -0.4656 0.0000 0.0000 0.0000 2.0331 2.6843 0.4293 0.5901 1.3292 10.9999 0.4400 0.0298 -7.3620 0.0000 0.0000 -0.0000
46.6033 39.4547 84.1946 179.6130 3.1372 176.1650 0.0000 0.0000 0.0000 4.0720 -0.7415 0.1929 -0.7455 -2.2074 9.6202 -5.6673 0.2194 -6.4343 0.0000 -0.0000 -0.0000 0.0000 0.0000 0.0000 1.5762 -0.7689 2.8492 1.7705 -1.2092 1.9104 -0.0000 0.0000 -0.0000 -0.5670 7.7448 -1.9239 -0.0000 0.0000 -0.0000 -33.7366 -2.5579 2.4104 -45.3436 -16.1918 -16.9708 -10.4024 5.0739 49.9568 13.9834 -3.5273 -1.0466 -0.0000 0.0000 -0.0000 33.9951 4.9755 3.3922 41.4908 4.2292 -16.8110 10.6252 1.5860 21.5128 -13.8821 -1.2772 -0.4996 0.0000 0.0000 0.0000 2.1617 3.0054 -0.0780 0.5015 0.8823 12.2351 0.3054 0.0384 -7.9153 0.0000 0.0000 -0.0000
46.6431 39.3752 84.2573 179.6420 3.0504 175.8970 0.0000 0.0000 0.0000 4.0839 -0.9137 -0.1325 -0.6142 -2.1935 10.7054 -5.7353 0.1939 -6.9611 0.0000 -0.0000 -0.0000 0.0000 0.0000 0.0000 1.6388 -0.7583 3.6681 1.9669 -1.2178 1.3583 -0.0000 0.0000 -0.0000 -0.8740 7.8721 -2.0690 -0.0000 0.0000 -0.0000 -34.1992 -2.6622 2.4806 -45.0028 -16.1786 -17.1075 -10.3498 5.0673 50.1974 13.6244 -3.9233 -1.0627 -0.0000 0.0000 -0.0000 33.8621 4.9440 3.3682 41.4640 3.8680 -16.5694 10.7157 2.1369 21.1126 -13.7905 -1.2635 -0.4979 0.0000 0.0000 0.0000 2.2949 3.3052 -0.5908 0.4432 0.4870 13.6620 0.2327 0.0431 -8.5545 0.0000 0.0000 -0.0000
46.6831 39.2878 84.3159 179.7810 3.0984 175.5980 0.0000 0.0000 0.0000 4.2564 -0.9657 -0.4027 -0.5439 -2.1859 11.7612 -5.7944 0.1677 -7.4851 0.0000 -0.0000 -0.0000 0.0000 0.0000 0.0000 2.0374 -0.7740 4.3185 1.7356 -1.1806 1.1273 -0.0000 0.0000 -0.0000 -0.9464 8.1192 -2.2978 -0.0000 0.0000 -0.0000 -34.1813 -2.7092 2.4984 -45.0511 -16.2680 -17.0313 -10.3922 5.0702 50.0833 13.7777 -3.9297 -1.0756 -0.0000 0.0000 -0.0000 34.2313 5.0194 3.4301 40.9716 3.5657 -16.0639 10.8989 2.7357 20.5744 -13.4808 -1.2020 -0.4936 0.0000 0.0000 0.0000 2.5347 3.4840 -1.0857 0.4523 0.3460 15.1819 0.1874 0.0460 -9.2426 0.0000 0.0000 -0.0000
46.7185 39.2021 84.3672 179.9780 3.2889 175.4080 0.0000 0.0000 0.0000 4.5231 -0.9127 -0.7491 -0.5124 -2.1272 12.7478 -5.8789 0.1449 -7.9500 0.0000 -0.0000 -0.0000 0.0000 0.0000 0.0000 2.7275 -0.9126 4.4578 1.0491 -1.1997 1.4594 -0.0000 0.0000 -0.0000 -0.7069 8.6577 -2.4312 -0.0000 0.0000 -0.0000 -33.6347 -2.5783 2.4123 -45.5156 -16.4450 -16.7688 -10.4992 5.0849 49.5518 14.3856 -3.4176 -1.0651 -0.0000 0.0000 -0.0000 34.9323 5.1658 3.5507 40.2322 3.8203 -15.6408 11.0574 2.7530 20.3651 -13.2540 -1.1097 -0.4953 0.0000 0.0000 0.0000 2.8176 3.4654 -1.6316 0.5468 0.5245 16.6369 0.1101 0.0510 -9.9048 0.0000 0.0000 -0.0000
46.7468 39.1300 84.4105 -179.7950 3.5276 175.3290 0.0000 0.0000 0.0000 4.8379 -0.7775 -1.0905 -0.5145 -2.0858 13.5046 -5.9794 0.1291 -8.2855 0.0000 -0.0000 -0.0000 0.0000 0.0000 0.0000 3.4728 -1.0933 4.3209 0.2767 -1.2492 1.9282 -0.0000 0.0000 -0.0000 -0.1761 9.3556 -2.5187 -0.0000 0.0000 -0.0000 -33.1651 -2.4256 2.3236 -45.8108 -16.4795 -16.5797 -10.5743 5.0992 49.0374 14.7952 -2.9567 -1.0414 -0.0000 0.0000 -0.0000 35.6746 5.3050 3.6742 39.4868 4.3776 -15.5385 11.1428 2.2613 20.3619 -13.1860 -1.0940 -0.4945 0.0000 0.0000 0.0000 3.1036 3.2992 -2.1559 0.7085 0.8690 17.8536 -0.0059 0.0585 -10.4663 0.0000 0.0000 -0.0000
46.7721 39.0834 84.4422 -179.5620 3.7580 175.2620 0.0000 0.0000 0.0000 5.1790 -0.5806 -1.2327 -0.5593 -2.1016 13.8647 -6.0461 0.1226 -8.4351 0.0000 -0.0000 -0.0000 0.0000 0.0000 0.0000 4.0053 -1.1733 4.2783 -0.1142 -1.2622 2.1663 -0.0000 0.0000 -0.0000 0.1335 9.5352 -2.2022 -0.0000 0.0000 -0.0000 -33.1333 -2.3824 2.3049 -45.7382 -16.3443 -16.5241 -10.6051 5.1053 48.8162 14.6925 -2.9387 -1.0315 -0.0000 0.0000 -0.0000 36.0244 5.3629 3.7300 39.0654 4.8322 -15.7555 11.1251 1.6818 20.4217 -13.1932 -1.0115 -0.5035 0.0000 0.0000 0.0000 3.3878 3.1075 -2.4667 0.8756 1.2069 18.6515 -0.1167 0.0656 -10.8572 0.0000 0.0000 -0.0000
46.8013 39.0620 84.4642 -179.3540 3.9628 175.1310 0.0000 0.0000 0.0000 5.5192 -0.3579 -1.1262 -0.6497 -2.1581 13.8888 -6.0703 0.1231 -8.4203 0.0000 -0.0000 -0.0000 0.0000 0.0000 0.0000 4.1007 -1.0300 4.5779 0.1945 -1.1673 2.0403 -0.0000 0.0000 -0.0000 0.0964 9.0912 -2.1278 -0.0000 0.0000 -0.0000 -33.3645 -2.4394 2.3411 -45.6742 -16.2687 -16.4465 -10.6333 5.1041 48.8460 14.3643 -3.0582 -1.0217 -0.0000 0.0000 -0.0000 35.6570 5.2879 3.6657 39.2566 4.9904 -16.2622 10.9549 1.2686 20.7756 -13.2544 -0.7232 -0.5368 0.0000 0.0000 0.0000 3.6517 2.9335 -2.4887 1.0147 1.4876 19.0282 -0.2182 0.0669 -11.0743 0.0000 0.0000 -0.0000
46.8311 39.0544 84.4758 -179.2160 4.1272 174.9800 0.0000 0.0000 0.0000 5.7909 -0.1639 -0.9393 -0.7599 -2.2155 13.8258 -6.0901 0.1231 -8.3577 0.0000 -0.0000 -0.0000 0.0000 0.0000 0.0000 3.8033 -0.7306 5.0269 1.0326 -1.0067 1.7181 -0.0000 0.0000 -0.0000 -0.1673 8.3461 -2.2508 -0.0000 0.0000 -0.0000 -33.7138 -2.5427 2.4030 -45.6945 -16.3170 -16.3396 -10.6676 5.1006 48.9513 14.1150 -2.9772 -0.9941 -0.0000 0.0000 -0.0000 34.7916 5.1153 3.5177 39.8736 4.9688 -16.9317 10.6800 0.9159 21.5109 -13.3880 -0.4699 -0.5696 0.0000 0.0000 0.0000 3.8188 2.6201 -2.3602 1.1925 1.8625 19.1586 -0.3534 0.0676 -11.1844 0.0000 0.0000 -0.0000
46.8544 39.0505 84.4755 -179.1550 4.2038 174.9350 0.0000 0.0000 0.0000 5.9534 -0.0243 -0.8822 -0.8613 -2.2879 13.8269 -6.1186 0.1234 -8.3382 0.0000 -0.0000 -0.0000 0.0000 0.0000 0.0000 3.4520 -0.5531 5.1126 1.7907 -0.9694 1.6215 -0.0000 0.0000 -0.0000 -0.3417 7.9150 -2.2708 -0.0000 0.0000 -0.0000 -34.1475 -2.6246 2.4623 -45.5081 -16.3517 -16.3710 -10.6687 5.0987 49.0156 13.9955 -2.8701 -0.9732 -0.0000 0.0000 -0.0000 34.0635 4.9789 3.3993 40.3761 5.0055 -17.3846 10.4736 0.5789 22.1619 -13.6078 -0.5409 -0.5711 0.0000 0.0000 0.0000 3.8552 2.0861 -2.3155 1.4386 2.3881 19.2217 -0.4992 0.0679 -11.2476 0.0000 0.0000 -0.0000
46.8681 39.0503 84.4638 -179.1760 4.0922 174.9940 0.0000 0.0000 0.0000 5.9502 -0.0233 -0.9393 -0.8890 -2.3928 13.8532 -6.1531 0.1239 -8.3667 0.0000 -0.0000 -0.0000 0.0000 0.0000 0.0000 3.3169 -0.6556 4.7180 1.9307 -1.1207 1.9243 -0.0000 0.0000 -0.0000 -0.2144 7.9392 -2.0762 -0.0000 0.0000 -0.0000 -34.3234 -2.6499 2.4834 -45.2391 -16.3680 -16.5971 -10.5771 5.0960 49.1429 14.0236 -2.9933 -0.9893 -0.0000 0.0000 -0.0000 34.0265 4.9911 3.4011 40.3727 5.0936 -17.4771 10.4258 0.3995 22.3369 -13.6284 -0.5174 -0.5746 0.0000 0.0000 0.0000 3.7780 1.5234 -2.3765 1.6318 2.8055 19.2217 -0.5443 0.0714 -11.2563 0.0000 0.0000 -0.0000
